<svg width="140" height="168" viewBox="0 0 140 168" fill="none" xmlns="http://www.w3.org/2000/svg">
<g filter="url(#filter0_d)">
<path d="M117 58.2222C117 84.8546 69 134 69 134C69 134 21 84.8546 21 58.2222C21 31.5898 42.4903 10 69 10C95.5097 10 117 31.5898 117 58.2222Z" fill="#FCFCFC"/>
<path d="M116 58.2222C116 64.6241 113.1 72.5078 108.62 80.8237C104.155 89.1106 98.1902 97.7032 92.2071 105.489C86.2268 113.271 80.244 120.227 75.7552 125.238C73.5112 127.743 71.6417 129.76 70.334 131.151C69.786 131.734 69.3368 132.207 69 132.559C68.6632 132.207 68.214 131.734 67.666 131.151C66.3583 129.76 64.4888 127.743 62.2449 125.238C57.756 120.227 51.7732 113.271 45.7929 105.489C39.8098 97.7032 33.845 89.1106 29.3804 80.8237C24.9001 72.5078 22 64.6241 22 58.2222C22 32.1377 43.047 11 69 11C94.953 11 116 32.1377 116 58.2222Z" stroke="#609FFF" stroke-width="2"/>
</g>
<path d="M96.7921 65.7382C96.5624 61.7025 95.4984 53.6994 94.1756 49.7872C91.3233 41.3443 82.8159 27.0558 69.0213 27.0558C55.2287 27.0558 46.7198 41.3443 43.8669 49.7872C42.5431 53.7031 41.4796 61.7046 41.251 65.7387C40.9036 71.8687 43.1861 77.8502 47.6785 82.5815C52.7253 87.8966 59.8108 90.9449 67.1188 90.9449H70.9248C78.2317 90.9449 85.3173 87.8966 90.364 82.5815C94.8565 77.8496 97.1395 71.8687 96.7921 65.7382ZM88.1028 80.454C83.7062 85.0837 77.2849 87.8476 70.9242 87.8476H67.1183C60.7576 87.8476 54.3353 85.0837 49.9393 80.4535C46.0405 76.3477 44.0582 71.1838 44.3569 65.9126C44.5814 61.9658 45.6252 54.2966 46.8157 50.7735C49.2263 43.6411 56.9693 30.1521 69.0218 30.1521C81.0763 30.1521 88.8178 43.6411 91.2273 50.774C92.4173 54.2935 93.4622 61.9637 93.6867 65.9126C93.9848 71.1838 92.002 76.3482 88.1028 80.454Z" fill="#0F0049"/>
<path d="M77.3461 46.0374C74.2801 46.0374 71.3743 47.064 69.0212 48.9551C66.6682 47.064 63.7624 46.0374 60.6959 46.0374C53.3677 46.0374 47.4058 51.9719 47.4058 59.2663C47.4058 64.1159 50.0144 68.4715 54.1802 70.7915C53.7488 71.7644 53.5258 72.7838 53.5258 73.8057C53.5258 79.6225 60.3319 84.1783 69.0212 84.1783C77.7106 84.1783 84.5161 79.6225 84.5161 73.8057C84.5161 72.7838 84.2926 71.7639 83.8618 70.7915C88.0275 68.4715 90.6357 64.1154 90.6357 59.2663C90.6362 51.9719 84.6743 46.0374 77.3461 46.0374ZM81.1064 68.6749L79.2475 69.4114L80.4229 71.0232C81.0747 71.9167 81.4055 72.8529 81.4055 73.8057C81.4055 77.75 75.734 81.0816 69.0218 81.0816C62.309 81.0816 56.6375 77.75 56.6375 73.8057C56.6375 72.8534 56.9683 71.9177 57.6206 71.0232L58.7961 69.4114L56.9377 68.6749C53.0379 67.1296 50.5184 63.4361 50.5184 59.2663C50.5184 53.6798 55.0845 49.1342 60.6975 49.1342C63.428 49.1342 65.9926 50.1979 67.9189 52.1288L69.0228 53.2359L70.1267 52.1288C72.053 50.1979 74.6171 49.1342 77.3476 49.1342C82.9601 49.1342 87.5267 53.6798 87.5267 59.2663C87.5251 63.4361 85.0056 67.1296 81.1064 68.6749Z" fill="#0F0049"/>
<path d="M59.6874 60.7939C61.2267 60.7939 62.4745 59.5518 62.4745 58.0197C62.4745 56.4875 61.2267 55.2455 59.6874 55.2455C58.1482 55.2455 56.9004 56.4875 56.9004 58.0197C56.9004 59.5518 58.1482 60.7939 59.6874 60.7939Z" fill="#0F0049"/>
<path d="M78.355 60.7939C79.8943 60.7939 81.1421 59.5518 81.1421 58.0197C81.1421 56.4875 79.8943 55.2455 78.355 55.2455C76.8158 55.2455 75.568 56.4875 75.568 58.0197C75.568 59.5518 76.8158 60.7939 78.355 60.7939Z" fill="#0F0049"/>
<path d="M67.8604 66.3564H64.7493V70.5314H67.8604V66.3564Z" fill="#0F0049"/>
<path d="M73.2932 66.3564H70.1821V70.5314H73.2932V66.3564Z" fill="#0F0049"/>
<defs>
<filter id="filter0_d" x="0" y="0" width="140" height="168" filterUnits="userSpaceOnUse" color-interpolation-filters="sRGB">
<feFlood flood-opacity="0" result="BackgroundImageFix"/>
<feColorMatrix in="SourceAlpha" type="matrix" values="0 0 0 0 0 0 0 0 0 0 0 0 0 0 0 0 0 0 127 0"/>
<feOffset dx="1" dy="12"/>
<feGaussianBlur stdDeviation="11"/>
<feColorMatrix type="matrix" values="0 0 0 0 0 0 0 0 0 0 0 0 0 0 0 0 0 0 0.09 0"/>
<feBlend mode="normal" in2="BackgroundImageFix" result="effect1_dropShadow"/>
<feBlend mode="normal" in="SourceGraphic" in2="effect1_dropShadow" result="shape"/>
</filter>
</defs>
</svg>
