<svg width="55" height="55" viewBox="0 0 55 55" fill="none" xmlns="http://www.w3.org/2000/svg">
<circle cx="27.5" cy="27.5" r="26.5" stroke="#609FFF" stroke-width="2"/>
<path d="M42.8886 31.5793C42.7656 29.4354 42.1956 25.1837 41.487 23.1053C39.9589 18.6201 35.4014 11.0293 28.0114 11.0293C20.6225 11.0293 16.0642 18.6201 14.5359 23.1053C13.8267 25.1856 13.257 29.4365 13.1345 31.5796C12.9484 34.8361 14.1711 38.0138 16.5778 40.5273C19.2814 43.351 23.0772 44.9703 26.9922 44.9703H29.0311C32.9456 44.9703 36.7414 43.351 39.445 40.5273C41.8517 38.0135 43.0748 34.8361 42.8886 31.5793ZM38.2336 39.3971C35.8784 41.8566 32.4384 43.3249 29.0309 43.3249H26.992C23.5845 43.3249 20.1439 41.8566 17.7889 39.3968C15.7003 37.2156 14.6384 34.4723 14.7984 31.672C14.9186 29.5752 15.4778 25.501 16.1156 23.6293C17.407 19.8402 21.555 12.6742 28.0117 12.6742C34.4695 12.6742 38.6167 19.8402 39.9075 23.6296C40.545 25.4993 41.1048 29.5741 41.225 31.672C41.3848 34.4723 40.3225 37.2159 38.2336 39.3971Z" fill="#0F0049"/>
<path d="M32.4711 21.1133C30.8286 21.1133 29.2719 21.6587 28.0114 22.6633C26.7508 21.6587 25.1941 21.1133 23.5514 21.1133C19.6255 21.1133 16.4316 24.266 16.4316 28.1411C16.4316 30.7175 17.8291 33.0314 20.0608 34.2639C19.8297 34.7807 19.7103 35.3223 19.7103 35.8652C19.7103 38.9553 23.3564 41.3756 28.0114 41.3756C32.6664 41.3756 36.3122 38.9553 36.3122 35.8652C36.3122 35.3223 36.1925 34.7805 35.9616 34.2639C38.1933 33.0314 39.5905 30.7172 39.5905 28.1411C39.5908 24.266 36.3969 21.1133 32.4711 21.1133ZM34.4855 33.1394L33.4897 33.5307L34.1194 34.387C34.4686 34.8616 34.6458 35.359 34.6458 35.8652C34.6458 37.9606 31.6075 39.7305 28.0116 39.7305C24.4155 39.7305 21.3772 37.9606 21.3772 35.8652C21.3772 35.3593 21.5544 34.8622 21.9039 34.387L22.5336 33.5307L21.538 33.1394C19.4489 32.3185 18.0991 30.3563 18.0991 28.1411C18.0991 25.1733 20.5453 22.7584 23.5522 22.7584C25.015 22.7584 26.3889 23.3236 27.4208 24.3493L28.0122 24.9375L28.6036 24.3493C29.6355 23.3236 31.0091 22.7584 32.4719 22.7584C35.4786 22.7584 37.925 25.1733 37.925 28.1411C37.9241 30.3563 36.5744 32.3185 34.4855 33.1394Z" fill="#0F0049"/>
<path d="M23.0111 28.9534C23.8357 28.9534 24.5042 28.2936 24.5042 27.4796C24.5042 26.6657 23.8357 26.0059 23.0111 26.0059C22.1865 26.0059 21.5181 26.6657 21.5181 27.4796C21.5181 28.2936 22.1865 28.9534 23.0111 28.9534Z" fill="#0F0049"/>
<path d="M33.0116 28.9534C33.8362 28.9534 34.5047 28.2936 34.5047 27.4796C34.5047 26.6657 33.8362 26.0059 33.0116 26.0059C32.187 26.0059 31.5186 26.6657 31.5186 27.4796C31.5186 28.2936 32.187 28.9534 33.0116 28.9534Z" fill="#0F0049"/>
<path d="M27.3894 31.9082H25.7228V34.1262H27.3894V31.9082Z" fill="#0F0049"/>
<path d="M30.3 31.9082H28.6333V34.1262H30.3V31.9082Z" fill="#0F0049"/>
</svg>
