<svg width="55" height="55" viewBox="0 0 55 55" fill="none" xmlns="http://www.w3.org/2000/svg">
<circle cx="27.5" cy="27.5" r="26.5" stroke="#609FFF" stroke-width="2"/>
<path d="M41.946 22.1463C41.946 19.3216 40.2416 16.2741 37.2693 13.7851C34.4478 11.4223 30.9827 10.0117 27.9999 10.0117C22.0393 10.0117 14.0537 16.0112 14.0537 22.1466C14.0537 24.081 16.6321 27.7977 17.18 28.5652C18.4393 30.4891 20.1344 33.8704 19.7927 35.0546C18.8284 38.3929 18.8256 40.9409 19.7839 42.6272C20.5664 44.0046 21.6954 44.2696 21.8215 44.2952C21.8746 44.306 21.928 44.3114 21.982 44.3114H34.0175C34.0669 44.3114 34.1163 44.3069 34.1649 44.2979C34.2913 44.2744 35.4231 44.0284 36.2116 42.6654C37.1818 40.9888 37.1801 38.4281 36.207 35.0549C35.8622 33.8596 37.5243 30.5463 38.8198 28.5646C39.3682 27.7962 41.946 24.0804 41.946 22.1463ZM37.4306 27.5189C36.8299 28.4345 33.8695 33.1277 34.5776 35.5826C35.5873 39.0823 35.2502 40.8229 34.7895 41.6668C34.4682 42.2551 34.0556 42.4508 33.9067 42.5047H22.0956C21.9609 42.4523 21.563 42.2572 21.2435 41.6954C20.7638 40.8506 20.4051 39.1046 21.4219 35.5829C22.1308 33.128 19.1698 28.4345 18.5691 27.5189C18.5626 27.5087 18.5555 27.4988 18.5487 27.4888C17.3896 25.8678 15.7576 23.1386 15.7576 22.1463C15.7576 17.1595 22.9425 11.8179 27.9996 11.8179C33.6059 11.8179 40.2416 17.4164 40.2416 22.1463C40.2416 23.1371 38.6096 25.8666 37.4505 27.4888C37.444 27.4985 37.4369 27.5087 37.4306 27.5189Z" fill="#0F0049"/>
<path d="M26.8763 38.1565H25.1721V40.5997H26.8763V38.1565Z" fill="#0F0049"/>
<path d="M30.8276 38.1565H29.1234V40.5997H30.8276V38.1565Z" fill="#0F0049"/>
<path d="M29.9755 28.9634H26.0242V30.7698H29.9755V28.9634Z" fill="#0F0049"/>
<path d="M29.9755 32.6287H26.0242V34.4351H29.9755V32.6287Z" fill="#0F0049"/>
<path d="M19.2541 22.7402L22.6273 26.3159L23.8323 25.0386L20.4591 21.4629L19.2541 22.7402Z" fill="#0F0049"/>
<path d="M32.1689 25.0379L33.3738 26.3154L36.7475 22.7402L35.5426 21.4627L32.1689 25.0379Z" fill="#0F0049"/>
<path d="M31.8697 18.8821H24.13V20.6885H31.8697V18.8821Z" fill="#0F0049"/>
<path d="M31.8697 15.269H24.13V17.0755H31.8697V15.269Z" fill="#0F0049"/>
</svg>
