<svg width="55" height="55" viewBox="0 0 55 55" fill="none" xmlns="http://www.w3.org/2000/svg">
<g clip-path="url(#clip0)">
<path d="M43.0881 17.2035C42.2325 16.3587 41.0995 15.8936 39.8975 15.8936C38.6725 15.8936 37.5243 16.3742 36.6639 17.2468L35.6916 18.2332C33.1988 16.593 30.4209 15.73 27.6141 15.73C24.8071 15.73 22.0292 16.593 19.5367 18.2332L18.5641 17.2468C17.7037 16.3742 16.5552 15.8939 15.3305 15.8939C14.1288 15.8939 12.9958 16.359 12.1402 17.204C10.3578 18.9644 10.3387 21.8483 12.0974 23.6327L13.5323 25.0881C12.6354 26.9617 12.1638 28.8987 12.1638 30.7244C12.1638 37.1939 18.0841 41.2128 27.6144 41.2128C37.1445 41.2128 43.0648 37.1939 43.0648 30.7244C43.0648 28.899 42.5929 26.9623 41.6957 25.0881L43.1311 23.6327C44.8896 21.8483 44.8705 18.9644 43.0881 17.2035ZM41.9286 22.4458L40.068 24.3329C39.8095 24.5954 39.7507 24.9949 39.9226 25.3207C40.8736 27.1228 41.3761 28.9913 41.3761 30.7241C41.3761 37.2116 34.2668 39.5231 27.6139 39.5231C20.9607 39.5231 13.8514 37.2116 13.8514 30.7241C13.8514 28.991 14.3539 27.1222 15.3046 25.3207C15.4765 24.9949 15.4174 24.5951 15.1591 24.3329L13.2988 22.4458C12.1936 21.3246 12.2057 19.5124 13.3255 18.4064C13.8632 17.8756 14.575 17.583 15.3302 17.583C16.1 17.583 16.8216 17.8852 17.3624 18.4334L18.8319 19.9238C19.1243 20.2203 19.5888 20.2588 19.9264 20.0156C22.2791 18.3171 24.9373 17.4194 27.6141 17.4194C30.2904 17.4194 32.9486 18.3171 35.3016 20.0156C35.6389 20.2591 36.104 20.2203 36.3964 19.9238L37.8659 18.4334C38.4064 17.8852 39.128 17.583 39.8978 17.583C40.6533 17.583 41.3651 17.8756 41.9025 18.4061C43.0223 19.5127 43.0341 21.3246 41.9286 22.4458Z" fill="#0F0049"/>
<path d="M16.8998 26.7945C15.2789 28.4167 14.9672 30.7343 16.2035 31.9713C17.4395 33.2088 19.7553 32.8966 21.3762 31.2744C22.9968 29.6525 23.3085 27.3349 22.0725 26.0976C20.8363 24.8607 18.5204 25.1727 16.8998 26.7945ZM18.8918 30.6183C18.0565 30.6183 17.3795 29.9409 17.3795 29.1049C17.3795 28.2689 18.0565 27.5914 18.8918 27.5914C19.7272 27.5914 20.4041 28.2689 20.4041 29.1049C20.4041 29.9409 19.7272 30.6183 18.8918 30.6183Z" fill="#0F0049"/>
<path d="M33.1554 26.0976C31.9188 27.3349 32.2312 29.6525 33.8518 31.2744C35.4724 32.8966 37.7885 33.2086 39.0245 31.9713C40.261 30.7344 39.9487 28.4167 38.3281 26.7945C36.7075 25.1727 34.3911 24.8607 33.1554 26.0976ZM36.3361 30.6183C35.5008 30.6183 34.8238 29.9409 34.8238 29.1049C34.8238 28.2689 35.5008 27.5914 36.3361 27.5914C37.1715 27.5914 37.8484 28.2689 37.8484 29.1049C37.8484 29.9409 37.1712 30.6183 36.3361 30.6183Z" fill="#0F0049"/>
<path d="M29.1957 32.4922C29.5781 32.4116 29.8651 32.0729 29.8651 31.666C29.8651 31.1994 29.4872 30.8213 29.021 30.8213H26.2074C25.7412 30.8213 25.3634 31.1994 25.3634 31.666C25.3634 32.0726 25.6504 32.4113 26.0324 32.4922L24.6631 33.8626C24.3333 34.1923 24.3333 34.7273 24.6631 35.057C24.828 35.222 25.044 35.3045 25.2598 35.3045C25.4756 35.3045 25.6917 35.222 25.8566 35.057L27.6139 33.2983L29.3713 35.057C29.5362 35.222 29.7522 35.3045 29.968 35.3045C30.1838 35.3045 30.3999 35.222 30.5648 35.057C30.8945 34.7273 30.8945 34.1923 30.5648 33.8626L29.1957 32.4922Z" fill="#0F0049"/>
</g>
<rect x="1" y="1" width="53" height="53" rx="26.5" stroke="#D9E8FF" stroke-width="2"/>
<defs>
<clipPath id="clip0">
<rect width="33.7719" height="26.0526" fill="white" transform="translate(10.614 15.4385)"/>
</clipPath>
</defs>
</svg>
